<svg width="101" height="31" viewBox="0 0 101 31" fill="none" xmlns="http://www.w3.org/2000/svg">
<rect width="101" height="31" rx="8" fill="#F7931A"/>
<path d="M9.00657 20H10.8517V16.9062H12.1983L13.8517 20H15.8887L14.035 16.608C15.0279 16.1818 15.5776 15.3168 15.5776 14.1236C15.5776 12.3892 14.4313 11.2727 12.4498 11.2727H9.00657V20ZM10.8517 15.4233V12.7812H12.0961C13.1614 12.7812 13.677 13.2543 13.677 14.1236C13.677 14.9886 13.1614 15.4233 12.1046 15.4233H10.8517ZM19.725 20.1278C21.3443 20.1278 22.4352 19.3395 22.6909 18.125L21.0119 18.0142C20.8287 18.5128 20.3599 18.7727 19.7548 18.7727C18.8471 18.7727 18.2718 18.1719 18.2718 17.196V17.1918H22.7292V16.6932C22.7292 14.4688 21.3826 13.3693 19.6525 13.3693C17.7264 13.3693 16.4778 14.7372 16.4778 16.7571C16.4778 18.8324 17.7093 20.1278 19.725 20.1278ZM18.2718 16.0668C18.3102 15.321 18.877 14.7244 19.6824 14.7244C20.4707 14.7244 21.0162 15.2869 21.0204 16.0668H18.2718ZM26.8713 20.1278C28.6142 20.1278 29.7093 19.1051 29.7946 17.6009H28.0815C27.975 18.2997 27.5147 18.6918 26.8926 18.6918C26.0446 18.6918 25.4949 17.9801 25.4949 16.7273C25.4949 15.4915 26.0488 14.7841 26.8926 14.7841C27.5574 14.7841 27.9835 15.223 28.0815 15.875H29.7946C29.7179 14.3622 28.5716 13.3693 26.8627 13.3693C24.877 13.3693 23.6497 14.7457 23.6497 16.7528C23.6497 18.7429 24.8556 20.1278 26.8713 20.1278ZM33.9142 20.1278C35.9 20.1278 37.1358 18.7685 37.1358 16.7528C37.1358 14.7244 35.9 13.3693 33.9142 13.3693C31.9284 13.3693 30.6926 14.7244 30.6926 16.7528C30.6926 18.7685 31.9284 20.1278 33.9142 20.1278ZM33.9228 18.7216C33.0066 18.7216 32.5378 17.8821 32.5378 16.7401C32.5378 15.598 33.0066 14.7543 33.9228 14.7543C34.8219 14.7543 35.2907 15.598 35.2907 16.7401C35.2907 17.8821 34.8219 18.7216 33.9228 18.7216ZM38.3162 20H40.1316V16.071C40.1316 15.3466 40.5918 14.8651 41.1969 14.8651C41.7935 14.8651 42.1941 15.2741 42.1941 15.9176V20H43.954V16.0028C43.954 15.3253 44.3418 14.8651 45.0023 14.8651C45.5819 14.8651 46.0165 15.2273 46.0165 15.956V20H47.8276V15.598C47.8276 14.179 46.9838 13.3693 45.7651 13.3693C44.8063 13.3693 44.0605 13.8594 43.7921 14.6094H43.7239C43.5151 13.8509 42.8461 13.3693 41.9469 13.3693C41.0648 13.3693 40.3958 13.8381 40.123 14.6094H40.0463V13.4545H38.3162V20ZM52.2445 20.1278C53.8638 20.1278 54.9547 19.3395 55.2104 18.125L53.5314 18.0142C53.3482 18.5128 52.8794 18.7727 52.2743 18.7727C51.3667 18.7727 50.7914 18.1719 50.7914 17.196V17.1918H55.2488V16.6932C55.2488 14.4688 53.9022 13.3693 52.1721 13.3693C50.2459 13.3693 48.9973 14.7372 48.9973 16.7571C48.9973 18.8324 50.2289 20.1278 52.2445 20.1278ZM50.7914 16.0668C50.8297 15.321 51.3965 14.7244 52.2019 14.7244C52.9902 14.7244 53.5357 15.2869 53.54 16.0668H50.7914ZM58.2488 16.2159C58.253 15.3722 58.7559 14.8778 59.4888 14.8778C60.2175 14.8778 60.6564 15.3551 60.6522 16.1562V20H62.4675V15.8324C62.4675 14.3068 61.5726 13.3693 60.209 13.3693C59.2374 13.3693 58.5343 13.8466 58.2402 14.6094H58.1635V13.4545H56.4334V20H58.2488V16.2159ZM66.3102 20.1065C67.367 20.1065 67.9167 19.4972 68.1681 18.9517H68.2449V20H70.0346V11.2727H68.2235V14.554H68.1681C67.9252 14.0213 67.4011 13.3693 66.3059 13.3693C64.8699 13.3693 63.6554 14.4858 63.6554 16.7358C63.6554 18.9261 64.8187 20.1065 66.3102 20.1065ZM66.8855 18.6619C65.9949 18.6619 65.5091 17.8693 65.5091 16.7273C65.5091 15.5938 65.9863 14.8139 66.8855 14.8139C67.7676 14.8139 68.2619 15.5597 68.2619 16.7273C68.2619 17.8949 67.7591 18.6619 66.8855 18.6619ZM73.3936 20.1236C74.361 20.1236 74.9874 19.7017 75.307 19.0923H75.3581V20H77.0797V15.5852C77.0797 14.0256 75.7587 13.3693 74.3013 13.3693C72.7331 13.3693 71.7019 14.1193 71.4505 15.3125L73.1294 15.4489C73.253 15.0142 73.6408 14.6946 74.2928 14.6946C74.9107 14.6946 75.2644 15.0057 75.2644 15.5426V15.5682C75.2644 15.9901 74.8169 16.0455 73.6792 16.1562C72.3837 16.2756 71.2203 16.7102 71.2203 18.1719C71.2203 19.4673 72.1451 20.1236 73.3936 20.1236ZM73.9135 18.8707C73.3553 18.8707 72.9547 18.6108 72.9547 18.1122C72.9547 17.6009 73.3766 17.3494 74.0158 17.2599C74.4121 17.2045 75.0598 17.1108 75.2772 16.9659V17.6605C75.2772 18.3466 74.7104 18.8707 73.9135 18.8707ZM80.9 20.1065C81.9569 20.1065 82.5066 19.4972 82.758 18.9517H82.8347V20H84.6245V11.2727H82.8134V14.554H82.758C82.5151 14.0213 81.9909 13.3693 80.8958 13.3693C79.4597 13.3693 78.2452 14.4858 78.2452 16.7358C78.2452 18.9261 79.4086 20.1065 80.9 20.1065ZM81.4753 18.6619C80.5847 18.6619 80.0989 17.8693 80.0989 16.7273C80.0989 15.5938 80.5762 14.8139 81.4753 14.8139C82.3574 14.8139 82.8517 15.5597 82.8517 16.7273C82.8517 17.8949 82.3489 18.6619 81.4753 18.6619ZM89.0744 20.1278C91.0602 20.1278 92.296 18.7685 92.296 16.7528C92.296 14.7244 91.0602 13.3693 89.0744 13.3693C87.0886 13.3693 85.8528 14.7244 85.8528 16.7528C85.8528 18.7685 87.0886 20.1278 89.0744 20.1278ZM89.0829 18.7216C88.1667 18.7216 87.698 17.8821 87.698 16.7401C87.698 15.598 88.1667 14.7543 89.0829 14.7543C89.9821 14.7543 90.4508 15.598 90.4508 16.7401C90.4508 17.8821 89.9821 18.7216 89.0829 18.7216Z" fill="white"/>
</svg>
